<?xml version="1.0" encoding="UTF-8" standalone="no"?>
<!-- Created with Inkscape (http://www.inkscape.org/) -->

<svg
   width="1314"
   height="512"
   viewBox="0 0 347.6625 135.46666"
   version="1.1"
   id="svg4615"
   xml:space="preserve"
   inkscape:version="1.2.1 (9c6d41e410, 2022-07-14)"
   xmlns:inkscape="http://www.inkscape.org/namespaces/inkscape"
   xmlns:sodipodi="http://sodipodi.sourceforge.net/DTD/sodipodi-0.dtd"
   xmlns="http://www.w3.org/2000/svg"
   xmlns:svg="http://www.w3.org/2000/svg"><sodipodi:namedview
     id="namedview4617"
     pagecolor="#ffffff"
     bordercolor="#666666"
     borderopacity="1.0"
     inkscape:showpageshadow="2"
     inkscape:pageopacity="0.0"
     inkscape:pagecheckerboard="0"
     inkscape:deskcolor="#d1d1d1"
     inkscape:document-units="mm"
     showgrid="false"
     inkscape:zoom="1.0129245"
     inkscape:cx="647.13608"
     inkscape:cy="306.53814"
     inkscape:window-width="1920"
     inkscape:window-height="991"
     inkscape:window-x="-9"
     inkscape:window-y="-9"
     inkscape:window-maximized="1"
     inkscape:current-layer="layer1" /><defs
     id="defs4612" /><g
     inkscape:label="Layer 1"
     inkscape:groupmode="layer"
     id="layer1"><g
       id="g5632"><path
         style="fill:none;fill-opacity:1;stroke:#000000;stroke-width:3.91048;stroke-dasharray:none;stroke-opacity:1"
         d="m 64.96425,125.20726 c -0.797775,-0.27426 -3.042903,-1.50062 -7.102642,-3.87968 -0.444148,-0.26028 -1.219712,-0.70628 -1.723476,-0.99113 -0.503768,-0.28485 -1.38699,-0.80186 -1.962722,-1.14891 -0.57573,-0.34705 -1.282311,-0.75762 -1.570176,-0.91237 -0.287865,-0.15476 -0.994445,-0.56884 -1.570175,-0.92018 -0.57573,-0.35134 -1.400073,-0.82335 -1.831872,-1.04891 -0.431798,-0.22555 -1.105355,-0.61244 -1.496788,-0.85973 -0.850706,-0.53745 -15.164478,-8.83929 -22.710091,-13.17162 -2.950621,-1.6941 -5.614109,-3.25739 -5.918861,-3.473972 -0.774535,-0.550454 -2.402103,-3.068117 -2.573202,-3.980452 -0.07832,-0.417599 -0.144401,-12.750362 -0.146855,-27.406145 -0.0043,-25.592096 0.01516,-26.690136 0.491004,-27.739775 0.862956,-1.903523 2.503509,-3.127421 9.979785,-7.445191 19.38197,-11.193663 35.09295,-20.233 36.50659,-21.004129 1.283058,-0.699895 1.90945,-0.870113 3.42557,-0.930881 1.092403,-0.04378 2.285994,0.07399 2.902495,0.286393 0.575907,0.198415 4.157102,2.152851 7.958207,4.343193 3.801109,2.190339 9.089723,5.239018 11.752479,6.774842 2.662755,1.535825 9.316376,5.362626 14.78582,8.504009 5.46945,3.141382 10.57959,6.246947 11.35588,6.901261 0.97759,0.823985 1.61039,1.636108 2.0587,2.642111 l 0.64726,1.452455 -0.0323,26.562143 c -0.0299,24.538631 -0.0671,26.660643 -0.48852,27.855153 -0.94867,2.688946 -1.08899,2.782226 -24.270514,16.133465 -11.802487,6.79756 -22.032881,12.64834 -22.734212,13.00174 -1.491284,0.75145 -4.236977,0.97005 -5.731344,0.45631 z"
         id="path302" /><path
         style="fill:#ffde59;fill-opacity:1;stroke:#000000;stroke-width:0.78210833;stroke-dasharray:none"
         d="m 58.221504,92.310669 c 0.518689,-0.556747 0.533587,-0.867284 0.533587,-11.122079 V 70.639247 h 10.120113 c 11.4749,0 11.077261,0.07138 11.077261,-1.988439 0,-1.979903 0.247634,-1.937 -11.180308,-1.937 H 58.755091 v -8.374272 -8.374271 h 11.56318 c 11.512015,0 11.565861,-0.0026 12.168862,-0.569008 1.16018,-1.089932 0.572023,-3.096083 -1.02326,-3.49025 -0.327507,-0.08092 -6.265272,-0.11336 -13.195028,-0.07208 -11.964837,0.07127 -12.627295,0.100165 -13.150225,0.573577 l -0.550667,0.49853 v 22.465295 c 0,22.116365 0.0081,22.47342 0.523392,22.988686 0.737405,0.737402 2.421929,0.710846 3.130159,-0.04935 z"
         id="path306" /><path
         style="fill:none;fill-opacity:1;stroke:#ffde59;stroke-width:1.95523;stroke-dasharray:none;stroke-opacity:1"
         d="m 64.96425,125.20726 c -0.797775,-0.27426 -3.042903,-1.50062 -7.102642,-3.87968 -0.444148,-0.26028 -1.219712,-0.70628 -1.723476,-0.99113 -0.503768,-0.28485 -1.38699,-0.80186 -1.962722,-1.14891 -0.57573,-0.34705 -1.282311,-0.75762 -1.570176,-0.91237 -0.287865,-0.15476 -0.994445,-0.56884 -1.570175,-0.92018 -0.57573,-0.35134 -1.400073,-0.82335 -1.831872,-1.04891 -0.431798,-0.22555 -1.105355,-0.61244 -1.496788,-0.85973 -0.850706,-0.53745 -15.164478,-8.83929 -22.710091,-13.17162 -2.950621,-1.6941 -5.614109,-3.25739 -5.918861,-3.473972 -0.774535,-0.550454 -2.402103,-3.068117 -2.573202,-3.980452 -0.07832,-0.417599 -0.144401,-12.750362 -0.146855,-27.406145 -0.0043,-25.592096 0.01516,-26.690136 0.491004,-27.739775 0.862956,-1.903523 2.503509,-3.127421 9.979785,-7.445191 19.38197,-11.193663 35.09295,-20.233 36.50659,-21.004129 1.283058,-0.699895 1.90945,-0.870113 3.42557,-0.930881 1.092403,-0.04378 2.285994,0.07399 2.902495,0.286393 0.575907,0.198415 4.157102,2.152851 7.958207,4.343193 3.801109,2.190339 9.089723,5.239018 11.752479,6.774842 2.662755,1.535825 9.316376,5.362626 14.78582,8.504009 5.46945,3.141382 10.57959,6.246947 11.35588,6.901261 0.97759,0.823985 1.61039,1.636108 2.0587,2.642111 l 0.64726,1.452455 -0.0323,26.562143 c -0.0299,24.538631 -0.0671,26.660643 -0.48852,27.855153 -0.94867,2.688946 -1.08899,2.782226 -24.270514,16.133465 -11.802487,6.79756 -22.032881,12.64834 -22.734212,13.00174 -1.491284,0.75145 -4.236977,0.97005 -5.731344,0.45631 z"
         id="path3151" /></g><g
       id="g5642"><path
         id="path4756"
         style="fill:#ffde59;stroke-width:0.78210833;stroke:#000000;fill-opacity:1;stroke-dasharray:none"
         d="M 179.82055 58.711662 C 178.80773 58.69519 177.7841 58.789761 176.76595 59.002083 C 171.57207 60.085201 167.08161 64.722949 165.52116 70.615845 C 164.90354 72.948398 164.91736 78.045382 165.54752 80.405428 C 166.79245 85.067905 169.89719 89.056478 173.67984 90.852852 C 174.76792 91.36958 176.18682 91.896376 176.83365 92.023324 L 176.83417 92.023324 C 179.85124 92.614831 182.7863 92.236182 185.53545 90.900395 C 187.32187 90.032388 190.00383 87.757148 190.77078 86.458805 C 191.01815 86.040026 191.31397 85.697095 191.42811 85.697095 C 191.54225 85.697095 191.63585 86.819631 191.63585 88.191516 C 191.63585 90.571049 191.6679 90.711094 192.33296 91.234224 C 193.20513 91.920275 193.50563 91.920275 194.3778 91.234224 L 195.07543 90.685937 L 195.07543 75.578333 C 195.07543 58.918484 195.13434 59.503345 193.44659 59.503345 C 192.02778 59.503345 191.63606 60.257156 191.62706 63.009074 L 191.61931 65.45647 L 191.05242 64.66272 C 188.39549 60.9417 184.20943 58.783041 179.82055 58.711662 z M 180.12647 62.28147 C 183.04496 62.28147 183.41991 62.33971 184.76495 63.000289 C 187.82667 64.50397 190.1017 67.254882 191.16404 70.737284 C 191.8434 72.964253 191.95696 77.10015 191.4002 79.347095 C 190.29969 83.78856 187.52488 87.072122 183.78465 88.358948 C 181.96233 88.985914 178.6123 89.020422 176.69361 88.431812 C 173.03883 87.310612 170.13579 84.007718 169.01191 79.69281 C 168.49577 77.711067 168.50118 73.296167 169.02224 71.266968 C 169.97161 67.569805 172.30014 64.555333 175.36397 63.05765 C 176.85117 62.330668 177.15206 62.28147 180.12647 62.28147 z " /><path
         style="fill:#ffde59;stroke-width:0.78210833;stroke:#000000;fill-opacity:1;stroke-dasharray:none"
         d="m 321.28494,53.738395 c -0.39216,-0.31755 -0.62918,-0.867939 -0.71972,-1.671378 -0.11403,-1.011631 -0.0312,-1.318593 0.53248,-1.973934 0.57211,-0.66512 0.85585,-0.776018 1.98554,-0.776018 1.85854,0 2.43194,0.571119 2.43194,2.422258 0,1.880722 -0.56295,2.472534 -2.35193,2.472534 -0.84865,0 -1.49474,-0.162854 -1.87831,-0.473462 z"
         id="path4772" /><path
         style="fill:#ffde59;stroke-width:0.78210833;stroke:#000000;fill-opacity:1;stroke-dasharray:none"
         d="m 322.42363,91.513792 c -0.31792,-0.126733 -0.70488,-0.467437 -0.8599,-0.757118 -0.19002,-0.355026 -0.28188,-5.447914 -0.28188,-15.625341 0,-14.745866 0.0124,-15.111007 0.52916,-15.62781 1.00852,-1.008518 2.70764,-0.519419 3.05155,0.878398 0.0781,0.317246 0.10798,7.269887 0.0665,15.450314 -0.0649,12.809227 -0.13046,14.925936 -0.47225,15.251289 -0.55819,0.531352 -1.3561,0.700201 -2.03322,0.430268 z"
         id="path4770" /><path
         style="fill:#ffde59;stroke-width:0.78210833;stroke:#000000;fill-opacity:1;stroke-dasharray:none"
         d="m 298.08196,91.513792 c -0.31792,-0.126733 -0.70487,-0.467437 -0.85989,-0.757118 -0.39193,-0.732301 -0.39193,-29.494836 0,-30.227137 0.62976,-1.176729 2.70084,-1.037007 3.17658,0.214305 0.13513,0.355417 0.25035,1.977914 0.25604,3.605551 0.0101,2.837201 0.0265,2.922376 0.3991,2.063784 0.7488,-1.725041 2.83522,-4.316208 4.4073,-5.473504 2.63802,-1.941988 6.38331,-2.753166 8.54379,-1.850461 1.10159,0.460269 1.46611,1.491501 0.88818,2.512645 -0.3266,0.577056 -0.54266,0.668149 -1.42976,0.602765 -3.58113,-0.263956 -4.75808,-0.183157 -5.96005,0.409147 -2.32336,1.144905 -4.88879,4.167589 -6.13818,7.232253 -0.55512,1.361598 -0.59015,1.905563 -0.71832,11.145916 -0.11324,8.167952 -0.19788,9.774549 -0.53157,10.091917 -0.5584,0.531079 -1.35628,0.699796 -2.03322,0.429937 z"
         id="path4768" /><path
         style="fill:#ffde59;stroke-width:0.78210833;stroke:#000000;fill-opacity:1;stroke-dasharray:none"
         d="m 246.63539,91.526672 c -1.58673,-0.285181 -2.06212,-0.554839 -3.20148,-1.815967 -0.63809,-0.7063 -1.03515,-1.481177 -1.23395,-2.408153 -0.18896,-0.88111 -0.29311,-5.451623 -0.29311,-12.863099 V 62.943066 h -2.61653 c -2.98828,0 -3.79962,-0.367231 -3.79962,-1.719791 0,-1.352561 0.81134,-1.719792 3.79962,-1.719792 h 2.61653 v -3.72156 c 0,-2.117273 0.12099,-3.947636 0.28067,-4.245999 0.66025,-1.233702 2.53021,-1.111829 3.12973,0.203975 0.16879,0.370441 0.29376,2.159048 0.29376,4.204158 v 3.559426 h 3.27161 c 2.90917,0 3.34884,0.06075 3.96875,0.54837 0.89022,0.700244 0.94281,1.895385 0.1091,2.479336 -0.45773,0.320609 -1.33716,0.411877 -3.96875,0.411877 h -3.38071 l 0.001,11.707812 c 0.001,11.129264 0.0264,11.749502 0.5154,12.55147 0.62988,1.033024 1.8537,1.422834 3.82747,1.219124 1.27662,-0.13176 1.45391,-0.08671 1.73646,0.441235 0.99499,1.859163 -1.68297,3.270162 -5.05594,2.663944 z"
         id="path4766" /><path
         style="fill:#ffde59;stroke-width:0.78210833;stroke:#000000;fill-opacity:1;stroke-dasharray:none"
         d="m 206.77956,91.505952 c -0.32954,-0.131034 -0.71649,-0.546848 -0.8599,-0.92403 -0.16359,-0.430263 -0.26073,-8.798769 -0.26073,-22.460992 0,-21.628771 0.004,-21.779906 0.54837,-22.472358 0.68999,-0.877189 1.85991,-0.929991 2.61632,-0.118083 0.52957,0.568425 0.53947,0.850596 0.53947,15.36788 0,8.726397 0.0983,14.752671 0.23975,14.70063 0.13186,-0.04851 4.42947,-3.703949 9.55023,-8.123205 5.12076,-4.419256 9.51195,-8.087698 9.7582,-8.152095 0.70514,-0.184399 1.88307,0.899546 1.88307,1.732822 0,0.884989 -0.34813,1.222253 -7.40833,7.176913 -2.98318,2.51605 -5.63659,4.773609 -5.89647,5.016801 -0.44835,0.419558 -0.1069,0.833604 6.67838,8.098242 6.15778,6.592821 7.1512,7.769804 7.15323,8.474966 0.005,1.82907 -1.892,2.329389 -3.2909,0.867831 -0.47008,-0.491133 -3.74942,-3.962744 -7.28742,-7.714691 -3.538,-3.751951 -6.52549,-6.788044 -6.63888,-6.746875 -0.11339,0.04117 -1.22646,0.945314 -2.47351,2.009219 l -2.26735,1.934369 v 5.113922 c 0,4.490018 -0.0565,5.179253 -0.46302,5.649409 -0.58078,0.671682 -1.34625,0.877203 -2.12051,0.569336 z"
         id="path4764" /><path
         style="fill:#ffde59;stroke-width:0.78210833;stroke:#000000;fill-opacity:1;stroke-dasharray:none"
         d="m 134.56945,91.513752 c -0.31791,-0.126733 -0.70486,-0.467437 -0.8599,-0.757118 -0.19257,-0.359839 -0.28187,-7.102822 -0.28187,-21.28457 0,-20.043856 0.0174,-20.77936 0.50579,-21.382499 l 0.50578,-0.624623 h 12.34988 12.34988 l 0.50579,0.624623 c 0.67925,0.838832 0.63683,1.517351 -0.14364,2.297819 l -0.64943,0.649433 h -10.85995 -10.85994 v 8.069791 8.069791 h 9.525 c 9.17223,0 9.5446,0.01961 10.05417,0.529167 0.29104,0.291042 0.52917,0.826823 0.52917,1.190625 0,0.363802 -0.23813,0.899583 -0.52917,1.190625 -0.50957,0.509569 -0.88194,0.529166 -10.05417,0.529166 h -9.525 v 9.892564 c 0,9.041104 -0.0399,9.938652 -0.46302,10.428049 -0.57607,0.666226 -1.34539,0.877726 -2.09937,0.577157 z"
         id="path4762" /><path
         style="fill:#ffde59;stroke-width:0.78210833;stroke:#000000;fill-opacity:1;stroke-dasharray:none"
         d="m 269.42351,91.582512 c -4.19087,-1.132731 -6.96871,-3.949594 -8.07199,-8.185382 -0.31812,-1.22132 -0.39467,-3.575087 -0.39467,-12.13427 0,-10.223378 0.0194,-10.636575 0.52039,-11.089984 0.66583,-0.602565 1.73296,-0.602565 2.39879,0 0.4997,0.452223 0.52062,0.866563 0.52591,10.417968 0.006,10.837593 0.14346,12.239868 1.41186,14.404247 1.49024,2.542913 4.10575,3.735708 8.10763,3.697475 3.24249,-0.03098 5.14556,-0.707369 6.88544,-2.447237 2.1822,-2.182198 2.20006,-2.293604 2.36397,-14.729332 0.10919,-8.285612 0.22408,-10.971154 0.48271,-11.282343 0.49871,-0.600139 1.20001,-0.7053 2.121,-0.318053 0.61518,0.25867 0.85741,0.565584 0.98557,1.248822 0.0935,0.498227 0.12304,5.477788 0.0657,11.065692 -0.0981,9.554837 -0.13843,10.262973 -0.67754,11.892039 -1.14321,3.454627 -3.90845,6.223071 -7.28144,7.289903 -2.09349,0.662143 -7.27792,0.755724 -9.4433,0.170455 z"
         id="path4760" /></g></g></svg>
