<?xml version="1.0" encoding="UTF-8" standalone="no"?>
<!-- Created with Inkscape (http://www.inkscape.org/) -->

<svg
   width="512cm"
   height="512cm"
   viewBox="0 0 5120 5120"
   version="1.1"
   id="svg5"
   xml:space="preserve"
   inkscape:version="1.2.1 (9c6d41e410, 2022-07-14)"
   sodipodi:docname="logo.svg"
   inkscape:export-filename="logo-solid.png"
   inkscape:export-xdpi="2.54"
   inkscape:export-ydpi="2.54"
   xmlns:inkscape="http://www.inkscape.org/namespaces/inkscape"
   xmlns:sodipodi="http://sodipodi.sourceforge.net/DTD/sodipodi-0.dtd"
   xmlns="http://www.w3.org/2000/svg"
   xmlns:svg="http://www.w3.org/2000/svg"><sodipodi:namedview
     id="namedview7"
     pagecolor="#ffffff"
     bordercolor="#666666"
     borderopacity="1.0"
     inkscape:showpageshadow="2"
     inkscape:pageopacity="0.0"
     inkscape:pagecheckerboard="0"
     inkscape:deskcolor="#d1d1d1"
     inkscape:document-units="mm"
     showgrid="false"
     inkscape:zoom="0.031653891"
     inkscape:cx="16001.192"
     inkscape:cy="6460.5012"
     inkscape:window-width="1708"
     inkscape:window-height="871"
     inkscape:window-x="2391"
     inkscape:window-y="-9"
     inkscape:window-maximized="1"
     inkscape:current-layer="layer1" /><defs
     id="defs2" /><g
     inkscape:label="Layer 1"
     inkscape:groupmode="layer"
     id="layer1"><path
       style="fill:none;fill-opacity:1;stroke:#000000;stroke-width:132.292;stroke-dasharray:none;stroke-opacity:1"
       d="m 2480.0676,4603.1285 c -26.9888,-9.2782 -102.9417,-50.7661 -240.2831,-131.25 -15.0256,-8.8052 -41.263,-23.8937 -58.3054,-33.53 -17.0425,-9.6364 -46.922,-27.1269 -66.3991,-38.8677 -19.477,-11.7408 -43.3807,-25.6304 -53.1192,-30.8658 -9.7385,-5.2354 -33.6422,-19.2437 -53.1192,-31.1297 -19.477,-11.8858 -47.3646,-27.8539 -61.9724,-35.4846 -14.6078,-7.6306 -37.3943,-20.7189 -50.6365,-29.085 -28.7795,-18.182 -513.0159,-299.034 -768.2848,-445.597 -99.8198,-57.3117 -189.9259,-110.198 -200.2357,-117.525 -26.2026,-18.6219 -81.2634,-103.7947 -87.0517,-134.6591 -2.6495,-14.1274 -4.8851,-431.3461 -4.9681,-927.1528 -0.1448,-865.7833 0.5127,-902.9301 16.6107,-938.4395 29.1939,-64.3964 84.694,-105.801 337.6172,-251.8716 655.6941,-378.6828 1187.1982,-684.48453 1235.0218,-710.57193 43.406,-23.6775 64.5969,-29.436 115.8874,-31.4918 36.9561,-1.4812 77.3354,2.5031 98.1917,9.6887 19.483,6.7124 140.6352,72.8312 269.227,146.9307 128.5919,74.0994 307.5063,177.23653 397.5876,229.19363 90.0813,51.9571 315.174,181.4182 500.206,287.6915 185.0319,106.2733 357.9086,211.3349 384.1706,233.4704 33.072,27.8755 54.4795,55.3497 69.6459,89.3829 l 21.897,49.1367 -1.0942,898.6001 c -1.0109,830.1445 -2.2699,901.9324 -16.5267,942.3428 -32.0934,90.9673 -36.8407,94.123 -821.074,545.7967 -399.2794,229.9622 -745.3747,427.8949 -769.1008,439.8503 -50.4503,25.4216 -143.3374,32.817 -193.892,15.4371 z"
       id="path302" /><path
       style="fill:#ffde59;stroke-width:26.45833333;fill-opacity:1;stroke:#000000;stroke-dasharray:none"
       d="m 2251.9598,3490.2333 c 17.5473,-18.8348 18.0513,-29.3403 18.0513,-376.2611 v -356.8854 h 342.3645 c 388.1971,0 374.7449,2.4148 374.7449,-67.2691 0,-66.9803 8.3775,-65.5289 -378.231,-65.5289 h -338.8784 v -283.3025 -283.3025 h 391.1836 c 389.4527,0 391.2743,-0.089 411.6739,-19.2496 39.249,-36.8725 19.3516,-104.7408 -34.617,-118.0755 -11.0796,-2.7376 -211.9548,-3.835 -446.3892,-2.4385 -404.7717,2.411 -427.1827,3.3886 -444.8735,19.4042 l -18.6291,16.8653 v 760.0033 c 0,748.199 0.2754,760.2782 17.7064,777.7097 24.9465,24.9464 81.9341,24.048 105.8936,-1.6694 z"
       id="path306" /><path
       style="fill:none;fill-opacity:1;stroke:#ffde59;stroke-width:66.14583333;stroke-dasharray:none;stroke-opacity:1"
       d="m 2480.0676,4603.1285 c -26.9888,-9.2782 -102.9417,-50.7661 -240.2831,-131.25 -15.0256,-8.8052 -41.263,-23.8937 -58.3054,-33.53 -17.0425,-9.6364 -46.922,-27.1269 -66.3991,-38.8677 -19.477,-11.7408 -43.3807,-25.6304 -53.1192,-30.8658 -9.7385,-5.2354 -33.6422,-19.2437 -53.1192,-31.1297 -19.477,-11.8858 -47.3646,-27.8539 -61.9724,-35.4846 -14.6078,-7.6306 -37.3943,-20.7189 -50.6365,-29.085 -28.7795,-18.182 -513.0159,-299.034 -768.2848,-445.597 -99.8198,-57.3117 -189.9259,-110.198 -200.2357,-117.525 -26.2026,-18.6219 -81.2634,-103.7947 -87.0517,-134.6591 -2.6495,-14.1274 -4.8851,-431.3461 -4.9681,-927.1528 -0.1448,-865.7833 0.5127,-902.9301 16.6107,-938.4395 29.1939,-64.3964 84.694,-105.801 337.6172,-251.8716 655.6941,-378.6828 1187.1982,-684.48453 1235.0218,-710.57193 43.406,-23.6775 64.5969,-29.436 115.8874,-31.4918 36.9561,-1.4812 77.3354,2.5031 98.1917,9.6887 19.483,6.7124 140.6352,72.8312 269.227,146.9307 128.5919,74.0994 307.5063,177.23653 397.5876,229.19363 90.0813,51.9571 315.174,181.4182 500.206,287.6915 185.0319,106.2733 357.9086,211.3349 384.1706,233.4704 33.072,27.8755 54.4795,55.3497 69.6459,89.3829 l 21.897,49.1367 -1.0942,898.6001 c -1.0109,830.1445 -2.2699,901.9324 -16.5267,942.3428 -32.0934,90.9673 -36.8407,94.123 -821.074,545.7967 -399.2794,229.9622 -745.3747,427.8949 -769.1008,439.8503 -50.4503,25.4216 -143.3374,32.817 -193.892,15.4371 z"
       id="path3151" /></g></svg>
