<svg xmlns="http://www.w3.org/2000/svg" width="375" viewBox="0 0 375 375" height="375" version="1.0"><path fill="#081B34" d="M 187.5 44.785156 C 108.679688 44.785156 44.785156 108.679688 44.785156 187.5 C 44.785156 266.320312 108.679688 330.214844 187.5 330.214844 L 330.214844 330.214844 L 330.214844 187.5 C 330.238281 108.679688 266.320312 44.785156 187.5 44.785156 Z M 187.5 44.785156"/><path fill="#FFDE59" d="M 187.5 48.703125 C 110.839844 48.703125 48.703125 110.839844 48.703125 187.5 C 48.703125 264.160156 110.839844 326.296875 187.5 326.296875 L 326.296875 326.296875 L 326.296875 187.5 C 326.324219 110.839844 264.160156 48.703125 187.5 48.703125 Z M 187.5 48.703125"/><g fill="#081B34"><g><g><path d="M 31.28125 0 L 24.171875 0 L 9.265625 -14.984375 L 9.265625 0 L 3.46875 0 L 3.46875 -32.046875 L 9.265625 -32.046875 L 9.265625 -17.6875 L 23.578125 -32.046875 L 30.5625 -32.046875 L 14.984375 -16.65625 Z M 31.28125 0" transform="translate(76.44 172.5)"/></g></g></g><g fill="#081B34"><g><g><path d="M 24.796875 -22.71875 L 24.796875 0 L 19.265625 0 L 19.265625 -3.640625 C 18.566406 -2.378906 17.570312 -1.394531 16.28125 -0.6875 C 15 0.0078125 13.53125 0.359375 11.875 0.359375 C 9.894531 0.359375 8.140625 -0.117188 6.609375 -1.078125 C 5.078125 -2.035156 3.890625 -3.398438 3.046875 -5.171875 C 2.210938 -6.941406 1.796875 -9 1.796875 -11.34375 C 1.796875 -13.675781 2.222656 -15.75 3.078125 -17.5625 C 3.929688 -19.382812 5.125 -20.796875 6.65625 -21.796875 C 8.1875 -22.804688 9.925781 -23.3125 11.875 -23.3125 C 13.53125 -23.3125 15 -22.957031 16.28125 -22.25 C 17.570312 -21.539062 18.566406 -20.5625 19.265625 -19.3125 L 19.265625 -22.71875 Z M 13.40625 -4.046875 C 15.269531 -4.046875 16.710938 -4.691406 17.734375 -5.984375 C 18.753906 -7.273438 19.265625 -9.09375 19.265625 -11.4375 C 19.265625 -13.832031 18.753906 -15.675781 17.734375 -16.96875 C 16.710938 -18.257812 15.253906 -18.90625 13.359375 -18.90625 C 11.503906 -18.90625 10.054688 -18.234375 9.015625 -16.890625 C 7.984375 -15.554688 7.46875 -13.707031 7.46875 -11.34375 C 7.46875 -9 7.984375 -7.195312 9.015625 -5.9375 C 10.054688 -4.675781 11.519531 -4.046875 13.40625 -4.046875 Z M 13.40625 -4.046875" transform="translate(106.409 172.5)"/></g></g></g><g fill="#081B34"><g><g><path d="M 3.0625 0 L 3.0625 -33.125 L 8.640625 -33.125 L 8.640625 0 Z M 3.0625 0" transform="translate(134.264 172.5)"/></g></g></g><g fill="#081B34"><g><g><path d="M 25.609375 0 L 18.578125 0 L 8.640625 -10.484375 L 8.640625 0 L 3.0625 0 L 3.0625 -33.125 L 8.640625 -33.125 L 8.640625 -12.6875 L 18 -22.6875 L 24.796875 -22.6875 L 14.578125 -11.828125 Z M 25.609375 0" transform="translate(146.009 172.5)"/></g></g></g><g fill="#081B34"><g><g><path d="M 23.765625 -22.71875 L 23.765625 0 L 18.265625 0 L 18.265625 -3.515625 C 17.546875 -2.253906 16.585938 -1.289062 15.390625 -0.625 C 14.191406 0.03125 12.8125 0.359375 11.25 0.359375 C 5.695312 0.359375 2.921875 -2.757812 2.921875 -9 L 2.921875 -22.71875 L 8.5 -22.71875 L 8.5 -8.953125 C 8.5 -7.304688 8.835938 -6.09375 9.515625 -5.3125 C 10.191406 -4.53125 11.234375 -4.140625 12.640625 -4.140625 C 14.296875 -4.140625 15.617188 -4.675781 16.609375 -5.75 C 17.597656 -6.832031 18.09375 -8.273438 18.09375 -10.078125 L 18.09375 -22.71875 Z M 23.765625 -22.71875" transform="translate(170.804 172.5)"/></g></g></g><g fill="#081B34"><g><g><path d="M 3.0625 0 L 3.0625 -33.125 L 8.640625 -33.125 L 8.640625 0 Z M 3.0625 0" transform="translate(197.624 172.5)"/></g></g></g><g fill="#081B34"><g><g><path d="M 24.796875 -22.71875 L 24.796875 0 L 19.265625 0 L 19.265625 -3.640625 C 18.566406 -2.378906 17.570312 -1.394531 16.28125 -0.6875 C 15 0.0078125 13.53125 0.359375 11.875 0.359375 C 9.894531 0.359375 8.140625 -0.117188 6.609375 -1.078125 C 5.078125 -2.035156 3.890625 -3.398438 3.046875 -5.171875 C 2.210938 -6.941406 1.796875 -9 1.796875 -11.34375 C 1.796875 -13.675781 2.222656 -15.75 3.078125 -17.5625 C 3.929688 -19.382812 5.125 -20.796875 6.65625 -21.796875 C 8.1875 -22.804688 9.925781 -23.3125 11.875 -23.3125 C 13.53125 -23.3125 15 -22.957031 16.28125 -22.25 C 17.570312 -21.539062 18.566406 -20.5625 19.265625 -19.3125 L 19.265625 -22.71875 Z M 13.40625 -4.046875 C 15.269531 -4.046875 16.710938 -4.691406 17.734375 -5.984375 C 18.753906 -7.273438 19.265625 -9.09375 19.265625 -11.4375 C 19.265625 -13.832031 18.753906 -15.675781 17.734375 -16.96875 C 16.710938 -18.257812 15.253906 -18.90625 13.359375 -18.90625 C 11.503906 -18.90625 10.054688 -18.234375 9.015625 -16.890625 C 7.984375 -15.554688 7.46875 -13.707031 7.46875 -11.34375 C 7.46875 -9 7.984375 -7.195312 9.015625 -5.9375 C 10.054688 -4.675781 11.519531 -4.046875 13.40625 -4.046875 Z M 13.40625 -4.046875" transform="translate(209.369 172.5)"/></g></g></g><g fill="#081B34"><g><g><path d="M 10.21875 -18.5 L 10.21875 -8.328125 C 10.21875 -5.648438 11.460938 -4.3125 13.953125 -4.3125 C 14.640625 -4.3125 15.390625 -4.4375 16.203125 -4.6875 L 16.203125 -0.21875 C 15.210938 0.132812 14.007812 0.3125 12.59375 0.3125 C 10.019531 0.3125 8.039062 -0.40625 6.65625 -1.84375 C 5.28125 -3.28125 4.59375 -5.351562 4.59375 -8.0625 L 4.59375 -18.5 L 0.21875 -18.5 L 0.21875 -22.71875 L 4.59375 -22.71875 L 4.59375 -28.265625 L 10.21875 -30.15625 L 10.21875 -22.71875 L 16.25 -22.71875 L 16.25 -18.5 Z M 10.21875 -18.5" transform="translate(237.224 172.5)"/></g></g></g><g fill="#081B34"><g><g><path d="M 13.359375 0.359375 C 11.054688 0.359375 9.023438 -0.117188 7.265625 -1.078125 C 5.515625 -2.035156 4.164062 -3.40625 3.21875 -5.1875 C 2.269531 -6.976562 1.796875 -9.070312 1.796875 -11.46875 C 1.796875 -13.875 2.269531 -15.96875 3.21875 -17.75 C 4.164062 -19.539062 5.515625 -20.914062 7.265625 -21.875 C 9.023438 -22.832031 11.054688 -23.3125 13.359375 -23.3125 C 15.640625 -23.3125 17.648438 -22.832031 19.390625 -21.875 C 21.128906 -20.914062 22.472656 -19.539062 23.421875 -17.75 C 24.367188 -15.96875 24.84375 -13.875 24.84375 -11.46875 C 24.84375 -9.070312 24.367188 -6.976562 23.421875 -5.1875 C 22.472656 -3.40625 21.128906 -2.035156 19.390625 -1.078125 C 17.648438 -0.117188 15.640625 0.359375 13.359375 0.359375 Z M 13.3125 -4.046875 C 15.238281 -4.046875 16.703125 -4.664062 17.703125 -5.90625 C 18.710938 -7.15625 19.21875 -9.007812 19.21875 -11.46875 C 19.21875 -13.90625 18.707031 -15.757812 17.6875 -17.03125 C 16.664062 -18.300781 15.222656 -18.9375 13.359375 -18.9375 C 11.472656 -18.9375 10.019531 -18.300781 9 -17.03125 C 7.976562 -15.757812 7.46875 -13.90625 7.46875 -11.46875 C 7.46875 -9.007812 7.96875 -7.15625 8.96875 -5.90625 C 9.976562 -4.664062 11.425781 -4.046875 13.3125 -4.046875 Z M 13.3125 -4.046875" transform="translate(254.279 172.5)"/></g></g></g><g fill="#081B34"><g><g><path d="M 15.296875 -23.265625 C 16.171875 -23.265625 16.921875 -23.144531 17.546875 -22.90625 L 17.5 -17.78125 C 16.539062 -18.164062 15.550781 -18.359375 14.53125 -18.359375 C 12.613281 -18.359375 11.148438 -17.800781 10.140625 -16.6875 C 9.140625 -15.582031 8.640625 -14.113281 8.640625 -12.28125 L 8.640625 0 L 3.0625 0 L 3.0625 -16.296875 C 3.0625 -18.691406 2.941406 -20.832031 2.703125 -22.71875 L 7.96875 -22.71875 L 8.421875 -18.71875 C 8.984375 -20.1875 9.878906 -21.3125 11.109375 -22.09375 C 12.335938 -22.875 13.734375 -23.265625 15.296875 -23.265625 Z M 15.296875 -23.265625" transform="translate(280.919 172.5)"/></g></g></g><g fill="#081B34"><g><g><path d="M 3.46875 -32.046875 L 17.375 -32.046875 C 20.820312 -32.046875 23.503906 -31.210938 25.421875 -29.546875 C 27.347656 -27.878906 28.3125 -25.601562 28.3125 -22.71875 C 28.3125 -19.84375 27.34375 -17.5625 25.40625 -15.875 C 23.46875 -14.195312 20.789062 -13.359375 17.375 -13.359375 L 9.265625 -13.359375 L 9.265625 0 L 3.46875 0 Z M 16.6875 -17.859375 C 18.695312 -17.859375 20.21875 -18.269531 21.25 -19.09375 C 22.289062 -19.925781 22.8125 -21.125 22.8125 -22.6875 C 22.8125 -24.269531 22.300781 -25.472656 21.28125 -26.296875 C 20.257812 -27.128906 18.726562 -27.546875 16.6875 -27.546875 L 9.265625 -27.546875 L 9.265625 -17.859375 Z M 16.6875 -17.859375" transform="translate(140.54 235.5)"/></g></g></g><g fill="#081B34"><g><g><path d="M 3.46875 -32.046875 L 17.375 -32.046875 C 20.820312 -32.046875 23.503906 -31.210938 25.421875 -29.546875 C 27.347656 -27.878906 28.3125 -25.601562 28.3125 -22.71875 C 28.3125 -19.84375 27.34375 -17.5625 25.40625 -15.875 C 23.46875 -14.195312 20.789062 -13.359375 17.375 -13.359375 L 9.265625 -13.359375 L 9.265625 0 L 3.46875 0 Z M 16.6875 -17.859375 C 18.695312 -17.859375 20.21875 -18.269531 21.25 -19.09375 C 22.289062 -19.925781 22.8125 -21.125 22.8125 -22.6875 C 22.8125 -24.269531 22.300781 -25.472656 21.28125 -26.296875 C 20.257812 -27.128906 18.726562 -27.546875 16.6875 -27.546875 L 9.265625 -27.546875 L 9.265625 -17.859375 Z M 16.6875 -17.859375" transform="translate(170.51 235.5)"/></g></g></g><g fill="#081B34"><g><g><path d="M 25.015625 -32.046875 L 30.46875 -32.046875 L 30.46875 0 L 26.140625 0 L 8.859375 -22.453125 L 8.859375 0 L 3.46875 0 L 3.46875 -32.046875 L 7.78125 -32.046875 L 25.015625 -9.625 Z M 25.015625 -32.046875" transform="translate(200.48 235.5)"/></g></g></g></svg>