<svg xmlns="http://www.w3.org/2000/svg" width="375" viewBox="0 0 375 375" height="375" version="1.0"><path fill="#081B34" d="M 187.5 44.785156 C 108.679688 44.785156 44.785156 108.679688 44.785156 187.5 C 44.785156 266.320312 108.679688 330.214844 187.5 330.214844 L 330.214844 330.214844 L 330.214844 187.5 C 330.238281 108.679688 266.320312 44.785156 187.5 44.785156 Z M 187.5 44.785156"/><path fill="#FFDE59" d="M 187.5 48.703125 C 110.839844 48.703125 48.703125 110.839844 48.703125 187.5 C 48.703125 264.160156 110.839844 326.296875 187.5 326.296875 L 326.296875 326.296875 L 326.296875 187.5 C 326.324219 110.839844 264.160156 48.703125 187.5 48.703125 Z M 187.5 48.703125"/><g fill="#081B34"><g><g><path d="M 3.46875 -32.046875 L 17.375 -32.046875 C 20.820312 -32.046875 23.503906 -31.210938 25.421875 -29.546875 C 27.347656 -27.878906 28.3125 -25.601562 28.3125 -22.71875 C 28.3125 -19.84375 27.34375 -17.5625 25.40625 -15.875 C 23.46875 -14.195312 20.789062 -13.359375 17.375 -13.359375 L 9.265625 -13.359375 L 9.265625 0 L 3.46875 0 Z M 16.6875 -17.859375 C 18.695312 -17.859375 20.21875 -18.269531 21.25 -19.09375 C 22.289062 -19.925781 22.8125 -21.125 22.8125 -22.6875 C 22.8125 -24.269531 22.300781 -25.472656 21.28125 -26.296875 C 20.257812 -27.128906 18.726562 -27.546875 16.6875 -27.546875 L 9.265625 -27.546875 L 9.265625 -17.859375 Z M 16.6875 -17.859375" transform="translate(106.927 172.5)"/></g></g></g><g fill="#081B34"><g><g><path d="M 3.46875 -32.046875 L 17.375 -32.046875 C 20.820312 -32.046875 23.503906 -31.210938 25.421875 -29.546875 C 27.347656 -27.878906 28.3125 -25.601562 28.3125 -22.71875 C 28.3125 -19.84375 27.34375 -17.5625 25.40625 -15.875 C 23.46875 -14.195312 20.789062 -13.359375 17.375 -13.359375 L 9.265625 -13.359375 L 9.265625 0 L 3.46875 0 Z M 16.6875 -17.859375 C 18.695312 -17.859375 20.21875 -18.269531 21.25 -19.09375 C 22.289062 -19.925781 22.8125 -21.125 22.8125 -22.6875 C 22.8125 -24.269531 22.300781 -25.472656 21.28125 -26.296875 C 20.257812 -27.128906 18.726562 -27.546875 16.6875 -27.546875 L 9.265625 -27.546875 L 9.265625 -17.859375 Z M 16.6875 -17.859375" transform="translate(136.897 172.5)"/></g></g></g><g fill="#081B34"><g><g><path d="M 25.609375 -32.046875 L 31.359375 -32.046875 L 31.359375 0 L 25.609375 0 L 25.609375 -13.90625 L 9.1875 -13.90625 L 9.1875 0 L 3.46875 0 L 3.46875 -32.046875 L 9.1875 -32.046875 L 9.1875 -18.625 L 25.609375 -18.625 Z M 25.609375 -32.046875" transform="translate(166.867 172.5)"/></g></g></g><g fill="#081B34"><g><g><path d="M 24.703125 -4.71875 L 24.703125 0 L 3.1875 0 L 3.1875 -4.28125 L 14.078125 -16.015625 C 15.367188 -17.429688 16.3125 -18.722656 16.90625 -19.890625 C 17.507812 -21.054688 17.8125 -22.210938 17.8125 -23.359375 C 17.8125 -24.828125 17.382812 -25.9375 16.53125 -26.6875 C 15.675781 -27.4375 14.457031 -27.8125 12.875 -27.8125 C 10.050781 -27.8125 7.15625 -26.703125 4.1875 -24.484375 L 2.25 -28.703125 C 3.507812 -29.847656 5.128906 -30.753906 7.109375 -31.421875 C 9.085938 -32.097656 11.082031 -32.4375 13.09375 -32.4375 C 16.300781 -32.4375 18.84375 -31.648438 20.71875 -30.078125 C 22.59375 -28.503906 23.53125 -26.382812 23.53125 -23.71875 C 23.53125 -21.882812 23.132812 -20.15625 22.34375 -18.53125 C 21.550781 -16.914062 20.222656 -15.101562 18.359375 -13.09375 L 10.484375 -4.71875 Z M 24.703125 -4.71875" transform="translate(214.026 172.5)"/></g></g></g><g fill="#081B34"><g><g><path d="M 17.8125 -4.71875 L 24.796875 -4.71875 L 24.796875 0 L 5.046875 0 L 5.046875 -4.71875 L 12.0625 -4.71875 L 12.0625 -25.375 L 5.53125 -21.46875 L 5.53125 -26.640625 L 14.4375 -32.046875 L 17.8125 -32.046875 Z M 17.8125 -4.71875" transform="translate(241.071 172.5)"/></g></g></g><g fill="#081B34"><g><g><path d="M 17.6875 0.40625 C 14.59375 0.40625 11.898438 -0.257812 9.609375 -1.59375 C 7.316406 -2.925781 5.546875 -4.832031 4.296875 -7.3125 C 3.054688 -9.789062 2.4375 -12.707031 2.4375 -16.0625 C 2.4375 -19.394531 3.050781 -22.296875 4.28125 -24.765625 C 5.507812 -27.242188 7.269531 -29.140625 9.5625 -30.453125 C 11.851562 -31.773438 14.5625 -32.4375 17.6875 -32.4375 C 20.800781 -32.4375 23.503906 -31.773438 25.796875 -30.453125 C 28.097656 -29.140625 29.851562 -27.242188 31.0625 -24.765625 C 32.28125 -22.296875 32.890625 -19.394531 32.890625 -16.0625 C 32.890625 -12.707031 32.273438 -9.789062 31.046875 -7.3125 C 29.816406 -4.832031 28.0625 -2.925781 25.78125 -1.59375 C 23.5 -0.257812 20.800781 0.40625 17.6875 0.40625 Z M 17.6875 -4.234375 C 20.65625 -4.234375 22.960938 -5.25 24.609375 -7.28125 C 26.265625 -9.320312 27.09375 -12.25 27.09375 -16.0625 C 27.09375 -19.84375 26.265625 -22.742188 24.609375 -24.765625 C 22.960938 -26.796875 20.65625 -27.8125 17.6875 -27.8125 C 14.71875 -27.8125 12.40625 -26.804688 10.75 -24.796875 C 9.101562 -22.785156 8.28125 -19.875 8.28125 -16.0625 C 8.28125 -12.25 9.101562 -9.320312 10.75 -7.28125 C 12.40625 -5.25 14.71875 -4.234375 17.6875 -4.234375 Z M 17.6875 -4.234375" transform="translate(154.833 235.5)"/></g></g></g><g fill="#081B34"><g><g><path d="M 3.46875 -32.046875 L 17.375 -32.046875 C 20.820312 -32.046875 23.503906 -31.210938 25.421875 -29.546875 C 27.347656 -27.878906 28.3125 -25.601562 28.3125 -22.71875 C 28.3125 -19.84375 27.34375 -17.5625 25.40625 -15.875 C 23.46875 -14.195312 20.789062 -13.359375 17.375 -13.359375 L 9.265625 -13.359375 L 9.265625 0 L 3.46875 0 Z M 16.6875 -17.859375 C 18.695312 -17.859375 20.21875 -18.269531 21.25 -19.09375 C 22.289062 -19.925781 22.8125 -21.125 22.8125 -22.6875 C 22.8125 -24.269531 22.300781 -25.472656 21.28125 -26.296875 C 20.257812 -27.128906 18.726562 -27.546875 16.6875 -27.546875 L 9.265625 -27.546875 L 9.265625 -17.859375 Z M 16.6875 -17.859375" transform="translate(190.203 235.5)"/></g></g></g></svg>