<svg xmlns="http://www.w3.org/2000/svg" width="375" viewBox="0 0 375 375" height="375" version="1.0"><path fill="#081B34" d="M 187.5 44.785156 C 108.679688 44.785156 44.785156 108.679688 44.785156 187.5 C 44.785156 266.320312 108.679688 330.214844 187.5 330.214844 L 330.214844 330.214844 L 330.214844 187.5 C 330.238281 108.679688 266.320312 44.785156 187.5 44.785156 Z M 187.5 44.785156"/><path fill="#FFDE59" d="M 187.5 48.703125 C 110.839844 48.703125 48.703125 110.839844 48.703125 187.5 C 48.703125 264.160156 110.839844 326.296875 187.5 326.296875 L 326.296875 326.296875 L 326.296875 187.5 C 326.324219 110.839844 264.160156 48.703125 187.5 48.703125 Z M 187.5 48.703125"/><g fill="#081B34"><g><g><path d="M 3.46875 -32.046875 L 17.375 -32.046875 C 20.820312 -32.046875 23.503906 -31.210938 25.421875 -29.546875 C 27.347656 -27.878906 28.3125 -25.601562 28.3125 -22.71875 C 28.3125 -19.84375 27.34375 -17.5625 25.40625 -15.875 C 23.46875 -14.195312 20.789062 -13.359375 17.375 -13.359375 L 9.265625 -13.359375 L 9.265625 0 L 3.46875 0 Z M 16.6875 -17.859375 C 18.695312 -17.859375 20.21875 -18.269531 21.25 -19.09375 C 22.289062 -19.925781 22.8125 -21.125 22.8125 -22.6875 C 22.8125 -24.269531 22.300781 -25.472656 21.28125 -26.296875 C 20.257812 -27.128906 18.726562 -27.546875 16.6875 -27.546875 L 9.265625 -27.546875 L 9.265625 -17.859375 Z M 16.6875 -17.859375" transform="translate(140.11 172.5)"/></g></g></g><g fill="#081B34"><g><g><path d="M 3.46875 -32.046875 L 17.375 -32.046875 C 20.820312 -32.046875 23.503906 -31.210938 25.421875 -29.546875 C 27.347656 -27.878906 28.3125 -25.601562 28.3125 -22.71875 C 28.3125 -19.84375 27.34375 -17.5625 25.40625 -15.875 C 23.46875 -14.195312 20.789062 -13.359375 17.375 -13.359375 L 9.265625 -13.359375 L 9.265625 0 L 3.46875 0 Z M 16.6875 -17.859375 C 18.695312 -17.859375 20.21875 -18.269531 21.25 -19.09375 C 22.289062 -19.925781 22.8125 -21.125 22.8125 -22.6875 C 22.8125 -24.269531 22.300781 -25.472656 21.28125 -26.296875 C 20.257812 -27.128906 18.726562 -27.546875 16.6875 -27.546875 L 9.265625 -27.546875 L 9.265625 -17.859375 Z M 16.6875 -17.859375" transform="translate(170.08 172.5)"/></g></g></g><g fill="#081B34"><g><g><path d="M 25.609375 -32.046875 L 31.359375 -32.046875 L 31.359375 0 L 25.609375 0 L 25.609375 -13.90625 L 9.1875 -13.90625 L 9.1875 0 L 3.46875 0 L 3.46875 -32.046875 L 9.1875 -32.046875 L 9.1875 -18.625 L 25.609375 -18.625 Z M 25.609375 -32.046875" transform="translate(200.05 172.5)"/></g></g></g><g fill="#081B34"><g><g><path d="M 23.171875 -16.5625 C 25.035156 -16.019531 26.46875 -15.070312 27.46875 -13.71875 C 28.476562 -12.375 28.984375 -10.710938 28.984375 -8.734375 C 28.984375 -6.003906 28.015625 -3.863281 26.078125 -2.3125 C 24.140625 -0.769531 21.445312 0 18 0 L 3.46875 0 L 3.46875 -32.046875 L 17.546875 -32.046875 C 20.847656 -32.046875 23.441406 -31.300781 25.328125 -29.8125 C 27.222656 -28.320312 28.171875 -26.273438 28.171875 -23.671875 C 28.171875 -21.992188 27.726562 -20.53125 26.84375 -19.28125 C 25.957031 -18.039062 24.734375 -17.132812 23.171875 -16.5625 Z M 9.140625 -18.546875 L 16.609375 -18.546875 C 20.628906 -18.546875 22.640625 -20.046875 22.640625 -23.046875 C 22.640625 -24.546875 22.144531 -25.671875 21.15625 -26.421875 C 20.164062 -27.171875 18.648438 -27.546875 16.609375 -27.546875 L 9.140625 -27.546875 Z M 17.375 -4.5 C 19.46875 -4.5 21 -4.875 21.96875 -5.625 C 22.945312 -6.375 23.4375 -7.5625 23.4375 -9.1875 C 23.4375 -10.832031 22.945312 -12.046875 21.96875 -12.828125 C 21 -13.609375 19.46875 -14 17.375 -14 L 9.140625 -14 L 9.140625 -4.5 Z M 17.375 -4.5" transform="translate(116.625 235.5)"/></g></g></g><g fill="#081B34"><g><g><path d="M 24.796875 -22.71875 L 24.796875 0 L 19.265625 0 L 19.265625 -3.640625 C 18.566406 -2.378906 17.570312 -1.394531 16.28125 -0.6875 C 15 0.0078125 13.53125 0.359375 11.875 0.359375 C 9.894531 0.359375 8.140625 -0.117188 6.609375 -1.078125 C 5.078125 -2.035156 3.890625 -3.398438 3.046875 -5.171875 C 2.210938 -6.941406 1.796875 -9 1.796875 -11.34375 C 1.796875 -13.675781 2.222656 -15.75 3.078125 -17.5625 C 3.929688 -19.382812 5.125 -20.796875 6.65625 -21.796875 C 8.1875 -22.804688 9.925781 -23.3125 11.875 -23.3125 C 13.53125 -23.3125 15 -22.957031 16.28125 -22.25 C 17.570312 -21.539062 18.566406 -20.5625 19.265625 -19.3125 L 19.265625 -22.71875 Z M 13.40625 -4.046875 C 15.269531 -4.046875 16.710938 -4.691406 17.734375 -5.984375 C 18.753906 -7.273438 19.265625 -9.09375 19.265625 -11.4375 C 19.265625 -13.832031 18.753906 -15.675781 17.734375 -16.96875 C 16.710938 -18.257812 15.253906 -18.90625 13.359375 -18.90625 C 11.503906 -18.90625 10.054688 -18.234375 9.015625 -16.890625 C 7.984375 -15.554688 7.46875 -13.707031 7.46875 -11.34375 C 7.46875 -9 7.984375 -7.195312 9.015625 -5.9375 C 10.054688 -4.675781 11.519531 -4.046875 13.40625 -4.046875 Z M 13.40625 -4.046875" transform="translate(147.675 235.5)"/></g></g></g><g fill="#081B34"><g><g><path d="M 24.796875 -33.125 L 24.796875 0 L 19.265625 0 L 19.265625 -3.640625 C 18.566406 -2.378906 17.570312 -1.394531 16.28125 -0.6875 C 15 0.0078125 13.53125 0.359375 11.875 0.359375 C 9.925781 0.359375 8.1875 -0.132812 6.65625 -1.125 C 5.125 -2.113281 3.929688 -3.515625 3.078125 -5.328125 C 2.222656 -7.148438 1.796875 -9.226562 1.796875 -11.5625 C 1.796875 -13.90625 2.210938 -15.960938 3.046875 -17.734375 C 3.890625 -19.503906 5.078125 -20.875 6.609375 -21.84375 C 8.140625 -22.820312 9.894531 -23.3125 11.875 -23.3125 C 13.5 -23.3125 14.945312 -22.972656 16.21875 -22.296875 C 17.5 -21.617188 18.484375 -20.664062 19.171875 -19.4375 L 19.171875 -33.125 Z M 13.359375 -4.046875 C 15.222656 -4.046875 16.671875 -4.691406 17.703125 -5.984375 C 18.742188 -7.273438 19.265625 -9.101562 19.265625 -11.46875 C 19.265625 -13.84375 18.753906 -15.675781 17.734375 -16.96875 C 16.710938 -18.257812 15.269531 -18.90625 13.40625 -18.90625 C 11.519531 -18.90625 10.054688 -18.265625 9.015625 -16.984375 C 7.984375 -15.710938 7.46875 -13.90625 7.46875 -11.5625 C 7.46875 -9.195312 7.984375 -7.351562 9.015625 -6.03125 C 10.054688 -4.707031 11.503906 -4.046875 13.359375 -4.046875 Z M 13.359375 -4.046875" transform="translate(175.53 235.5)"/></g></g></g><g fill="#081B34"><g><g><path d="M 24.796875 -22.71875 L 24.796875 0 L 19.265625 0 L 19.265625 -3.640625 C 18.566406 -2.378906 17.570312 -1.394531 16.28125 -0.6875 C 15 0.0078125 13.53125 0.359375 11.875 0.359375 C 9.894531 0.359375 8.140625 -0.117188 6.609375 -1.078125 C 5.078125 -2.035156 3.890625 -3.398438 3.046875 -5.171875 C 2.210938 -6.941406 1.796875 -9 1.796875 -11.34375 C 1.796875 -13.675781 2.222656 -15.75 3.078125 -17.5625 C 3.929688 -19.382812 5.125 -20.796875 6.65625 -21.796875 C 8.1875 -22.804688 9.925781 -23.3125 11.875 -23.3125 C 13.53125 -23.3125 15 -22.957031 16.28125 -22.25 C 17.570312 -21.539062 18.566406 -20.5625 19.265625 -19.3125 L 19.265625 -22.71875 Z M 13.40625 -4.046875 C 15.269531 -4.046875 16.710938 -4.691406 17.734375 -5.984375 C 18.753906 -7.273438 19.265625 -9.09375 19.265625 -11.4375 C 19.265625 -13.832031 18.753906 -15.675781 17.734375 -16.96875 C 16.710938 -18.257812 15.253906 -18.90625 13.359375 -18.90625 C 11.503906 -18.90625 10.054688 -18.234375 9.015625 -16.890625 C 7.984375 -15.554688 7.46875 -13.707031 7.46875 -11.34375 C 7.46875 -9 7.984375 -7.195312 9.015625 -5.9375 C 10.054688 -4.675781 11.519531 -4.046875 13.40625 -4.046875 Z M 13.40625 -4.046875" transform="translate(203.385 235.5)"/></g></g></g><g fill="#081B34"><g><g><path d="M 16.0625 -23.3125 C 21.488281 -23.3125 24.203125 -20.191406 24.203125 -13.953125 L 24.203125 0 L 18.578125 0 L 18.578125 -13.6875 C 18.578125 -15.476562 18.234375 -16.785156 17.546875 -17.609375 C 16.859375 -18.441406 15.796875 -18.859375 14.359375 -18.859375 C 12.648438 -18.859375 11.269531 -18.304688 10.21875 -17.203125 C 9.164062 -16.109375 8.640625 -14.664062 8.640625 -12.875 L 8.640625 0 L 3.0625 0 L 3.0625 -16.296875 C 3.0625 -18.691406 2.941406 -20.832031 2.703125 -22.71875 L 7.96875 -22.71875 L 8.375 -18.984375 C 9.15625 -20.367188 10.210938 -21.4375 11.546875 -22.1875 C 12.878906 -22.9375 14.382812 -23.3125 16.0625 -23.3125 Z M 16.0625 -23.3125" transform="translate(231.24 235.5)"/></g></g></g></svg>