<svg xmlns="http://www.w3.org/2000/svg" width="375" viewBox="0 0 375 375" height="375" version="1.0"><path fill="#081B34" d="M 187.5 44.785156 C 108.679688 44.785156 44.785156 108.679688 44.785156 187.5 C 44.785156 266.320312 108.679688 330.214844 187.5 330.214844 L 330.214844 330.214844 L 330.214844 187.5 C 330.238281 108.679688 266.320312 44.785156 187.5 44.785156 Z M 187.5 44.785156"/><path fill="#FFDE59" d="M 187.5 48.703125 C 110.839844 48.703125 48.703125 110.839844 48.703125 187.5 C 48.703125 264.160156 110.839844 326.296875 187.5 326.296875 L 326.296875 326.296875 L 326.296875 187.5 C 326.324219 110.839844 264.160156 48.703125 187.5 48.703125 Z M 187.5 48.703125"/><g fill="#081B34"><g><g><path d="M 3.46875 -32.046875 L 17.375 -32.046875 C 20.820312 -32.046875 23.503906 -31.210938 25.421875 -29.546875 C 27.347656 -27.878906 28.3125 -25.601562 28.3125 -22.71875 C 28.3125 -19.84375 27.34375 -17.5625 25.40625 -15.875 C 23.46875 -14.195312 20.789062 -13.359375 17.375 -13.359375 L 9.265625 -13.359375 L 9.265625 0 L 3.46875 0 Z M 16.6875 -17.859375 C 18.695312 -17.859375 20.21875 -18.269531 21.25 -19.09375 C 22.289062 -19.925781 22.8125 -21.125 22.8125 -22.6875 C 22.8125 -24.269531 22.300781 -25.472656 21.28125 -26.296875 C 20.257812 -27.128906 18.726562 -27.546875 16.6875 -27.546875 L 9.265625 -27.546875 L 9.265625 -17.859375 Z M 16.6875 -17.859375" transform="translate(140.54 172.5)"/></g></g></g><g fill="#081B34"><g><g><path d="M 3.46875 -32.046875 L 17.375 -32.046875 C 20.820312 -32.046875 23.503906 -31.210938 25.421875 -29.546875 C 27.347656 -27.878906 28.3125 -25.601562 28.3125 -22.71875 C 28.3125 -19.84375 27.34375 -17.5625 25.40625 -15.875 C 23.46875 -14.195312 20.789062 -13.359375 17.375 -13.359375 L 9.265625 -13.359375 L 9.265625 0 L 3.46875 0 Z M 16.6875 -17.859375 C 18.695312 -17.859375 20.21875 -18.269531 21.25 -19.09375 C 22.289062 -19.925781 22.8125 -21.125 22.8125 -22.6875 C 22.8125 -24.269531 22.300781 -25.472656 21.28125 -26.296875 C 20.257812 -27.128906 18.726562 -27.546875 16.6875 -27.546875 L 9.265625 -27.546875 L 9.265625 -17.859375 Z M 16.6875 -17.859375" transform="translate(170.51 172.5)"/></g></g></g><g fill="#081B34"><g><g><path d="M 25.015625 -32.046875 L 30.46875 -32.046875 L 30.46875 0 L 26.140625 0 L 8.859375 -22.453125 L 8.859375 0 L 3.46875 0 L 3.46875 -32.046875 L 7.78125 -32.046875 L 25.015625 -9.625 Z M 25.015625 -32.046875" transform="translate(200.48 172.5)"/></g></g></g><g fill="#081B34"><g><g><path d="M 30.109375 -32.046875 L 34.6875 -32.046875 L 34.6875 0 L 29.5625 0 L 29.5625 -19.890625 L 21.0625 0 L 17.234375 0 L 8.6875 -19.671875 L 8.6875 0 L 3.5625 0 L 3.5625 -32.046875 L 8.140625 -32.046875 L 19.171875 -6.96875 Z M 30.109375 -32.046875" transform="translate(89.869 235.5)"/></g></g></g><g fill="#081B34"><g><g><path d="M 24.796875 -22.71875 L 24.796875 0 L 19.265625 0 L 19.265625 -3.640625 C 18.566406 -2.378906 17.570312 -1.394531 16.28125 -0.6875 C 15 0.0078125 13.53125 0.359375 11.875 0.359375 C 9.894531 0.359375 8.140625 -0.117188 6.609375 -1.078125 C 5.078125 -2.035156 3.890625 -3.398438 3.046875 -5.171875 C 2.210938 -6.941406 1.796875 -9 1.796875 -11.34375 C 1.796875 -13.675781 2.222656 -15.75 3.078125 -17.5625 C 3.929688 -19.382812 5.125 -20.796875 6.65625 -21.796875 C 8.1875 -22.804688 9.925781 -23.3125 11.875 -23.3125 C 13.53125 -23.3125 15 -22.957031 16.28125 -22.25 C 17.570312 -21.539062 18.566406 -20.5625 19.265625 -19.3125 L 19.265625 -22.71875 Z M 13.40625 -4.046875 C 15.269531 -4.046875 16.710938 -4.691406 17.734375 -5.984375 C 18.753906 -7.273438 19.265625 -9.09375 19.265625 -11.4375 C 19.265625 -13.832031 18.753906 -15.675781 17.734375 -16.96875 C 16.710938 -18.257812 15.253906 -18.90625 13.359375 -18.90625 C 11.503906 -18.90625 10.054688 -18.234375 9.015625 -16.890625 C 7.984375 -15.554688 7.46875 -13.707031 7.46875 -11.34375 C 7.46875 -9 7.984375 -7.195312 9.015625 -5.9375 C 10.054688 -4.675781 11.519531 -4.046875 13.40625 -4.046875 Z M 13.40625 -4.046875" transform="translate(128.119 235.5)"/></g></g></g><g fill="#081B34"><g><g><path d="M 11.390625 0.359375 C 7.273438 0.359375 4.003906 -0.597656 1.578125 -2.515625 L 3.15625 -6.484375 C 5.582031 -4.679688 8.351562 -3.78125 11.46875 -3.78125 C 12.820312 -3.78125 13.863281 -4.003906 14.59375 -4.453125 C 15.332031 -4.898438 15.703125 -5.53125 15.703125 -6.34375 C 15.703125 -7.03125 15.445312 -7.578125 14.9375 -7.984375 C 14.425781 -8.390625 13.554688 -8.742188 12.328125 -9.046875 L 8.546875 -9.90625 C 4.410156 -10.800781 2.34375 -12.914062 2.34375 -16.25 C 2.34375 -17.625 2.734375 -18.84375 3.515625 -19.90625 C 4.296875 -20.976562 5.390625 -21.8125 6.796875 -22.40625 C 8.203125 -23.007812 9.835938 -23.3125 11.703125 -23.3125 C 13.316406 -23.3125 14.875 -23.0625 16.375 -22.5625 C 17.875 -22.070312 19.195312 -21.363281 20.34375 -20.4375 L 18.671875 -16.609375 C 16.390625 -18.285156 14.050781 -19.125 11.65625 -19.125 C 10.363281 -19.125 9.359375 -18.882812 8.640625 -18.40625 C 7.921875 -17.925781 7.5625 -17.265625 7.5625 -16.421875 C 7.5625 -15.765625 7.773438 -15.238281 8.203125 -14.84375 C 8.640625 -14.457031 9.382812 -14.128906 10.4375 -13.859375 L 14.3125 -13 C 16.5625 -12.488281 18.203125 -11.703125 19.234375 -10.640625 C 20.273438 -9.578125 20.796875 -8.191406 20.796875 -6.484375 C 20.796875 -4.378906 19.953125 -2.710938 18.265625 -1.484375 C 16.585938 -0.253906 14.296875 0.359375 11.390625 0.359375 Z M 11.390625 0.359375" transform="translate(155.974 235.5)"/></g></g></g><g fill="#081B34"><g><g><path d="M 23.765625 -22.71875 L 23.765625 0 L 18.265625 0 L 18.265625 -3.515625 C 17.546875 -2.253906 16.585938 -1.289062 15.390625 -0.625 C 14.191406 0.03125 12.8125 0.359375 11.25 0.359375 C 5.695312 0.359375 2.921875 -2.757812 2.921875 -9 L 2.921875 -22.71875 L 8.5 -22.71875 L 8.5 -8.953125 C 8.5 -7.304688 8.835938 -6.09375 9.515625 -5.3125 C 10.191406 -4.53125 11.234375 -4.140625 12.640625 -4.140625 C 14.296875 -4.140625 15.617188 -4.675781 16.609375 -5.75 C 17.597656 -6.832031 18.09375 -8.273438 18.09375 -10.078125 L 18.09375 -22.71875 Z M 23.765625 -22.71875" transform="translate(178.519 235.5)"/></g></g></g><g fill="#081B34"><g><g><path d="M 25.609375 0 L 18.578125 0 L 8.640625 -10.484375 L 8.640625 0 L 3.0625 0 L 3.0625 -33.125 L 8.640625 -33.125 L 8.640625 -12.6875 L 18 -22.6875 L 24.796875 -22.6875 L 14.578125 -11.828125 Z M 25.609375 0" transform="translate(205.339 235.5)"/></g></g></g><g fill="#081B34"><g><g><path d="M 24.796875 -22.71875 L 24.796875 0 L 19.265625 0 L 19.265625 -3.640625 C 18.566406 -2.378906 17.570312 -1.394531 16.28125 -0.6875 C 15 0.0078125 13.53125 0.359375 11.875 0.359375 C 9.894531 0.359375 8.140625 -0.117188 6.609375 -1.078125 C 5.078125 -2.035156 3.890625 -3.398438 3.046875 -5.171875 C 2.210938 -6.941406 1.796875 -9 1.796875 -11.34375 C 1.796875 -13.675781 2.222656 -15.75 3.078125 -17.5625 C 3.929688 -19.382812 5.125 -20.796875 6.65625 -21.796875 C 8.1875 -22.804688 9.925781 -23.3125 11.875 -23.3125 C 13.53125 -23.3125 15 -22.957031 16.28125 -22.25 C 17.570312 -21.539062 18.566406 -20.5625 19.265625 -19.3125 L 19.265625 -22.71875 Z M 13.40625 -4.046875 C 15.269531 -4.046875 16.710938 -4.691406 17.734375 -5.984375 C 18.753906 -7.273438 19.265625 -9.09375 19.265625 -11.4375 C 19.265625 -13.832031 18.753906 -15.675781 17.734375 -16.96875 C 16.710938 -18.257812 15.253906 -18.90625 13.359375 -18.90625 C 11.503906 -18.90625 10.054688 -18.234375 9.015625 -16.890625 C 7.984375 -15.554688 7.46875 -13.707031 7.46875 -11.34375 C 7.46875 -9 7.984375 -7.195312 9.015625 -5.9375 C 10.054688 -4.675781 11.519531 -4.046875 13.40625 -4.046875 Z M 13.40625 -4.046875" transform="translate(230.134 235.5)"/></g></g></g><g fill="#081B34"><g><g><path d="M 16.0625 -23.3125 C 21.488281 -23.3125 24.203125 -20.191406 24.203125 -13.953125 L 24.203125 0 L 18.578125 0 L 18.578125 -13.6875 C 18.578125 -15.476562 18.234375 -16.785156 17.546875 -17.609375 C 16.859375 -18.441406 15.796875 -18.859375 14.359375 -18.859375 C 12.648438 -18.859375 11.269531 -18.304688 10.21875 -17.203125 C 9.164062 -16.109375 8.640625 -14.664062 8.640625 -12.875 L 8.640625 0 L 3.0625 0 L 3.0625 -16.296875 C 3.0625 -18.691406 2.941406 -20.832031 2.703125 -22.71875 L 7.96875 -22.71875 L 8.375 -18.984375 C 9.15625 -20.367188 10.210938 -21.4375 11.546875 -22.1875 C 12.878906 -22.9375 14.382812 -23.3125 16.0625 -23.3125 Z M 16.0625 -23.3125" transform="translate(257.989 235.5)"/></g></g></g></svg>