<svg xmlns="http://www.w3.org/2000/svg" width="375" viewBox="0 0 375 375" height="375" version="1.0"><path fill="#081B34" d="M 187.5 44.785156 C 108.679688 44.785156 44.785156 108.679688 44.785156 187.5 C 44.785156 266.320312 108.679688 330.214844 187.5 330.214844 L 330.214844 330.214844 L 330.214844 187.5 C 330.238281 108.679688 266.320312 44.785156 187.5 44.785156 Z M 187.5 44.785156"/><path fill="#FFDE59" d="M 187.5 48.703125 C 110.839844 48.703125 48.703125 110.839844 48.703125 187.5 C 48.703125 264.160156 110.839844 326.296875 187.5 326.296875 L 326.296875 326.296875 L 326.296875 187.5 C 326.324219 110.839844 264.160156 48.703125 187.5 48.703125 Z M 187.5 48.703125"/><g fill="#081B34"><g><g><path d="M 3.46875 -32.046875 L 17.375 -32.046875 C 20.820312 -32.046875 23.503906 -31.210938 25.421875 -29.546875 C 27.347656 -27.878906 28.3125 -25.601562 28.3125 -22.71875 C 28.3125 -19.84375 27.34375 -17.5625 25.40625 -15.875 C 23.46875 -14.195312 20.789062 -13.359375 17.375 -13.359375 L 9.265625 -13.359375 L 9.265625 0 L 3.46875 0 Z M 16.6875 -17.859375 C 18.695312 -17.859375 20.21875 -18.269531 21.25 -19.09375 C 22.289062 -19.925781 22.8125 -21.125 22.8125 -22.6875 C 22.8125 -24.269531 22.300781 -25.472656 21.28125 -26.296875 C 20.257812 -27.128906 18.726562 -27.546875 16.6875 -27.546875 L 9.265625 -27.546875 L 9.265625 -17.859375 Z M 16.6875 -17.859375" transform="translate(140.543 172.5)"/></g></g></g><g fill="#081B34"><g><g><path d="M 3.46875 -32.046875 L 17.375 -32.046875 C 20.820312 -32.046875 23.503906 -31.210938 25.421875 -29.546875 C 27.347656 -27.878906 28.3125 -25.601562 28.3125 -22.71875 C 28.3125 -19.84375 27.34375 -17.5625 25.40625 -15.875 C 23.46875 -14.195312 20.789062 -13.359375 17.375 -13.359375 L 9.265625 -13.359375 L 9.265625 0 L 3.46875 0 Z M 16.6875 -17.859375 C 18.695312 -17.859375 20.21875 -18.269531 21.25 -19.09375 C 22.289062 -19.925781 22.8125 -21.125 22.8125 -22.6875 C 22.8125 -24.269531 22.300781 -25.472656 21.28125 -26.296875 C 20.257812 -27.128906 18.726562 -27.546875 16.6875 -27.546875 L 9.265625 -27.546875 L 9.265625 -17.859375 Z M 16.6875 -17.859375" transform="translate(170.513 172.5)"/></g></g></g><g fill="#081B34"><g><g><path d="M 25.015625 -32.046875 L 30.46875 -32.046875 L 30.46875 0 L 26.140625 0 L 8.859375 -22.453125 L 8.859375 0 L 3.46875 0 L 3.46875 -32.046875 L 7.78125 -32.046875 L 25.015625 -9.625 Z M 25.015625 -32.046875" transform="translate(200.483 172.5)"/></g></g></g><g fill="#081B34"><g><g><path d="M 31.28125 0 L 24.171875 0 L 9.265625 -14.984375 L 9.265625 0 L 3.46875 0 L 3.46875 -32.046875 L 9.265625 -32.046875 L 9.265625 -17.6875 L 23.578125 -32.046875 L 30.5625 -32.046875 L 14.984375 -16.65625 Z M 31.28125 0" transform="translate(90.656 235.5)"/></g></g></g><g fill="#081B34"><g><g><path d="M 22.953125 -11.0625 L 7.296875 -11.0625 C 7.410156 -8.632812 8.015625 -6.84375 9.109375 -5.6875 C 10.203125 -4.53125 11.832031 -3.953125 14 -3.953125 C 16.488281 -3.953125 18.796875 -4.765625 20.921875 -6.390625 L 22.546875 -2.515625 C 21.460938 -1.648438 20.132812 -0.953125 18.5625 -0.421875 C 16.988281 0.0976562 15.390625 0.359375 13.765625 0.359375 C 10.046875 0.359375 7.117188 -0.6875 4.984375 -2.78125 C 2.859375 -4.882812 1.796875 -7.769531 1.796875 -11.4375 C 1.796875 -13.738281 2.257812 -15.789062 3.1875 -17.59375 C 4.125 -19.394531 5.429688 -20.796875 7.109375 -21.796875 C 8.785156 -22.804688 10.691406 -23.3125 12.828125 -23.3125 C 15.941406 -23.3125 18.40625 -22.296875 20.21875 -20.265625 C 22.039062 -18.242188 22.953125 -15.460938 22.953125 -11.921875 Z M 12.953125 -19.265625 C 11.453125 -19.265625 10.226562 -18.820312 9.28125 -17.9375 C 8.34375 -17.050781 7.738281 -15.765625 7.46875 -14.078125 L 18.046875 -14.078125 C 17.867188 -15.796875 17.347656 -17.085938 16.484375 -17.953125 C 15.628906 -18.828125 14.453125 -19.265625 12.953125 -19.265625 Z M 12.953125 -19.265625" transform="translate(120.626 235.5)"/></g></g></g><g fill="#081B34"><g><g><path d="M 3.0625 0 L 3.0625 -33.125 L 8.640625 -33.125 L 8.640625 0 Z M 3.0625 0" transform="translate(145.286 235.5)"/></g></g></g><g fill="#081B34"><g><g><path d="M 23.765625 -22.71875 L 23.765625 0 L 18.265625 0 L 18.265625 -3.515625 C 17.546875 -2.253906 16.585938 -1.289062 15.390625 -0.625 C 14.191406 0.03125 12.8125 0.359375 11.25 0.359375 C 5.695312 0.359375 2.921875 -2.757812 2.921875 -9 L 2.921875 -22.71875 L 8.5 -22.71875 L 8.5 -8.953125 C 8.5 -7.304688 8.835938 -6.09375 9.515625 -5.3125 C 10.191406 -4.53125 11.234375 -4.140625 12.640625 -4.140625 C 14.296875 -4.140625 15.617188 -4.675781 16.609375 -5.75 C 17.597656 -6.832031 18.09375 -8.273438 18.09375 -10.078125 L 18.09375 -22.71875 Z M 23.765625 -22.71875" transform="translate(157.031 235.5)"/></g></g></g><g fill="#081B34"><g><g><path d="M 24.796875 -22.71875 L 24.796875 0 L 19.265625 0 L 19.265625 -3.640625 C 18.566406 -2.378906 17.570312 -1.394531 16.28125 -0.6875 C 15 0.0078125 13.53125 0.359375 11.875 0.359375 C 9.894531 0.359375 8.140625 -0.117188 6.609375 -1.078125 C 5.078125 -2.035156 3.890625 -3.398438 3.046875 -5.171875 C 2.210938 -6.941406 1.796875 -9 1.796875 -11.34375 C 1.796875 -13.675781 2.222656 -15.75 3.078125 -17.5625 C 3.929688 -19.382812 5.125 -20.796875 6.65625 -21.796875 C 8.1875 -22.804688 9.925781 -23.3125 11.875 -23.3125 C 13.53125 -23.3125 15 -22.957031 16.28125 -22.25 C 17.570312 -21.539062 18.566406 -20.5625 19.265625 -19.3125 L 19.265625 -22.71875 Z M 13.40625 -4.046875 C 15.269531 -4.046875 16.710938 -4.691406 17.734375 -5.984375 C 18.753906 -7.273438 19.265625 -9.09375 19.265625 -11.4375 C 19.265625 -13.832031 18.753906 -15.675781 17.734375 -16.96875 C 16.710938 -18.257812 15.253906 -18.90625 13.359375 -18.90625 C 11.503906 -18.90625 10.054688 -18.234375 9.015625 -16.890625 C 7.984375 -15.554688 7.46875 -13.707031 7.46875 -11.34375 C 7.46875 -9 7.984375 -7.195312 9.015625 -5.9375 C 10.054688 -4.675781 11.519531 -4.046875 13.40625 -4.046875 Z M 13.40625 -4.046875" transform="translate(183.851 235.5)"/></g></g></g><g fill="#081B34"><g><g><path d="M 15.296875 -23.265625 C 16.171875 -23.265625 16.921875 -23.144531 17.546875 -22.90625 L 17.5 -17.78125 C 16.539062 -18.164062 15.550781 -18.359375 14.53125 -18.359375 C 12.613281 -18.359375 11.148438 -17.800781 10.140625 -16.6875 C 9.140625 -15.582031 8.640625 -14.113281 8.640625 -12.28125 L 8.640625 0 L 3.0625 0 L 3.0625 -16.296875 C 3.0625 -18.691406 2.941406 -20.832031 2.703125 -22.71875 L 7.96875 -22.71875 L 8.421875 -18.71875 C 8.984375 -20.1875 9.878906 -21.3125 11.109375 -22.09375 C 12.335938 -22.875 13.734375 -23.265625 15.296875 -23.265625 Z M 15.296875 -23.265625" transform="translate(211.706 235.5)"/></g></g></g><g fill="#081B34"><g><g><path d="M 24.796875 -22.71875 L 24.796875 0 L 19.265625 0 L 19.265625 -3.640625 C 18.566406 -2.378906 17.570312 -1.394531 16.28125 -0.6875 C 15 0.0078125 13.53125 0.359375 11.875 0.359375 C 9.894531 0.359375 8.140625 -0.117188 6.609375 -1.078125 C 5.078125 -2.035156 3.890625 -3.398438 3.046875 -5.171875 C 2.210938 -6.941406 1.796875 -9 1.796875 -11.34375 C 1.796875 -13.675781 2.222656 -15.75 3.078125 -17.5625 C 3.929688 -19.382812 5.125 -20.796875 6.65625 -21.796875 C 8.1875 -22.804688 9.925781 -23.3125 11.875 -23.3125 C 13.53125 -23.3125 15 -22.957031 16.28125 -22.25 C 17.570312 -21.539062 18.566406 -20.5625 19.265625 -19.3125 L 19.265625 -22.71875 Z M 13.40625 -4.046875 C 15.269531 -4.046875 16.710938 -4.691406 17.734375 -5.984375 C 18.753906 -7.273438 19.265625 -9.09375 19.265625 -11.4375 C 19.265625 -13.832031 18.753906 -15.675781 17.734375 -16.96875 C 16.710938 -18.257812 15.253906 -18.90625 13.359375 -18.90625 C 11.503906 -18.90625 10.054688 -18.234375 9.015625 -16.890625 C 7.984375 -15.554688 7.46875 -13.707031 7.46875 -11.34375 C 7.46875 -9 7.984375 -7.195312 9.015625 -5.9375 C 10.054688 -4.675781 11.519531 -4.046875 13.40625 -4.046875 Z M 13.40625 -4.046875" transform="translate(229.346 235.5)"/></g></g></g><g fill="#081B34"><g><g><path d="M 16.0625 -23.3125 C 21.488281 -23.3125 24.203125 -20.191406 24.203125 -13.953125 L 24.203125 0 L 18.578125 0 L 18.578125 -13.6875 C 18.578125 -15.476562 18.234375 -16.785156 17.546875 -17.609375 C 16.859375 -18.441406 15.796875 -18.859375 14.359375 -18.859375 C 12.648438 -18.859375 11.269531 -18.304688 10.21875 -17.203125 C 9.164062 -16.109375 8.640625 -14.664062 8.640625 -12.875 L 8.640625 0 L 3.0625 0 L 3.0625 -16.296875 C 3.0625 -18.691406 2.941406 -20.832031 2.703125 -22.71875 L 7.96875 -22.71875 L 8.375 -18.984375 C 9.15625 -20.367188 10.210938 -21.4375 11.546875 -22.1875 C 12.878906 -22.9375 14.382812 -23.3125 16.0625 -23.3125 Z M 16.0625 -23.3125" transform="translate(257.201 235.5)"/></g></g></g></svg>